<svg xmlns="http://www.w3.org/2000/svg" xmlns:xlink="http://www.w3.org/1999/xlink" width="97" height="72" viewBox="0 0 97 72">
    <defs>
        <path id="a" d="M0 .967h96.564V73H0z"/>
        <path id="c" d="M.75.97h70.813v42.046H.75z"/>
    </defs>
    <g fill="none" fill-rule="evenodd">
        <g transform="translate(0 -1)">
            <mask id="b" fill="#fff">
                <use xlink:href="#a"/>
            </mask>
            <path fill="#404041" d="M79.879 20.234c-.896-.554-2.037-.817-2.989-1.186-.84-.325-1.665-.705-2.495-1.067.882-.35 1.76-.71 2.639-1.066.56.36 1.088.746 1.779.47.262-.106.336-.457.222-.69a1.48 1.48 0 0 0-.359-.456c1-.418 1.98-.869 2.967-1.304.533.245 1.089.598 1.668.611.275.007.595-.254.56-.55-.045-.363-.24-.62-.48-.83.769-.354 1.529-.723 2.285-1.094.223.127.45.247.663.39.708.476 1.484-.428 1.02-1.004-.005-.005-.003-.013-.009-.02-.014-.02-.04-.03-.057-.05-.026-.024-.041-.055-.076-.08.007.01.012.02.02.03l-.043-.038c.617-.317 1.24-.633 1.845-.969 1.268.57 2.593 1.023 3.907 1.503-4.62 1.89-9.327 4.154-13.067 7.4m-7.324-6.599c.091-1.046.308-2.173.031-3.185 6.368-.509 12.747-3.151 18.29-6.43-.628 1.843-1.27 3.684-1.827 5.547-.003.01 0 .02-.003.03-.164-.02-.324-.066-.488-.079-.518-.041-.786.328-.785.715-.3.085-.598.186-.897.276.2-.73.407-1.65.2-2.316-.12-.374-.603-.568-.907-.264-.723.729-.81 2.034-.73 3.021a89.258 89.258 0 0 0-3.529 1.207c.23-.706.403-1.438.13-2.116-.115-.285-.559-.374-.774-.155-.715.726-.752 1.887-.918 2.867a129.196 129.196 0 0 0-3.836 1.542c.168-.696.23-1.42.025-2.026-.122-.358-.64-.603-.932-.258-.656.776-.67 1.919-.606 2.937-.887.385-1.776.768-2.657 1.167.08-.827.14-1.656.213-2.48m-42.463 22.77c.16-.204.313-.412.47-.618.23.494.469.985.655 1.496.163.45.224 1.002.48 1.418-.21-.043-.418-.098-.63-.137-.007-.39-.488-.763-.652-1.078-.172-.329-.234-.72-.323-1.081m-3.373 3.37c1.772.21 3.524.52 5.259.89-.65 1.175-1.333 2.004-2.672 2.53-1.463.575-3.106-.005-4.131-1.112-1.285-1.386-1.26-3.277-.182-4.756.816-1.118 2.04-1.605 3.334-1.752-.689.897-1.394 1.788-2.12 2.673-.41.5-.22 1.442.512 1.528m8.22-11.922c.022-.083.058-.163.08-.248.172-.65-.77-1.013-1.093-.43-.05.089-.105.173-.154.262a.587.587 0 0 0-.192.32c-1.31 2.302-2.767 4.459-4.322 6.56-2.167-.884-4.538.297-5.906 2.112-1.594 2.111-1.288 4.789.247 6.815 2.59 3.423 9.607 2.419 9.714-2.299 2.064.489 4.101 1.089 6.107 1.81.775.278 1.64-.384 1.313-1.23-.893-2.316-1.782-4.72-2.748-7.094a110.46 110.46 0 0 0 6.083-2.621c3.835 7.162 3.073 14.632-4.392 19.365-7.063 4.475-16.037 2.86-21.302-3.463-5.845-7.021-3.744-15.7 3.419-20.66 3.172-2.196 7.163-3.204 10.99-2.975 4.381.263 7.328 2.598 10.002 5.689-1.856 1.04-3.66 2.137-5.371 3.331-.763-1.8-1.564-3.575-2.476-5.244m-1.706 3.941c.295-.51.573-1.029.818-1.564.054.148.116.29.175.437.957 3.284 2.543 6.5 3.904 9.645-.267-.083-.542-.14-.812-.219-.013-1.25-.908-2.642-1.391-3.735-.7-1.568-1.507-3.287-2.694-4.564m-1.124 1.802c.168-.25.32-.507.481-.76.805 1.468 1.5 2.97 2.157 4.518.27.638.482 1.528.84 2.27-.34-.085-.678-.193-1.02-.275a.534.534 0 0 0 .044-.292c-.235-1.804-1.208-4.136-2.502-5.46m14.057 28.207c-13.204 8.024-30.688 2.95-38.85-9.651-7.734-11.939-3.387-29.483 9.65-35.595 11.812-5.533 27.078-1.172 35.204 8.58-2.685 1.207-5.36 2.466-7.944 3.845-4.698-8.097-15.448-8.237-22.926-3.954-8.734 5.001-10.553 14.98-5.14 23.085 5.615 8.41 16.882 9.753 25.091 4.526 7.562-4.815 9.37-14.378 4.263-21.515 2.653-1.262 5.288-2.59 7.923-3.907 6.94 12.033 5.523 26.81-7.27 34.586m.808 3.32c.17-.237.28-.533.3-.885a.493.493 0 0 0-.119-.322c.21-.119.403-.251.609-.372.095.069.211.12.37.12.507 0 .782-.432.78-.822a22.73 22.73 0 0 0 1.697-1.24c-1.065 1.349-2.302 2.5-3.637 3.52m-2.635 1.779c.024-.09.047-.178.062-.264.057-.355-.392-.638-.694-.47-.187.098-.37.204-.547.317-.119-.2-.204-.445-.274-.63.587-.209 1.17-.437 1.746-.681.038.077.065.156.145.215.502.363 1.06.416 1.524.246-.635.449-1.286.876-1.962 1.267m-4.13 1.961a.699.699 0 0 0 .142-.602l.023.037c-.006-.03-.029-.053-.038-.084a.708.708 0 0 0-.092-.196c-.014-.023-.016-.05-.033-.07-.191-.231-.395-.343-.542-.619a.724.724 0 0 0-.568-.394 32.603 32.603 0 0 0 2.344-.62c.184.572.411 1.265.923 1.623-.71.327-1.418.659-2.158.925m-2.343.738c-.126-.142-.271-.27-.403-.406-.423-.433-.67-.993-.87-1.555a.67.67 0 0 0-.137-.231c.707-.097 1.409-.23 2.11-.372-.335.183-.546.565-.307.991.234.415.5.788.925 1.017a.879.879 0 0 0 .255.086c-.52.169-1.041.331-1.573.47m-3.501.716a.56.56 0 0 0 .169-.365c.005-.158.013-.465.007-.531-.04-.475-.23-1.005-.447-1.435a.722.722 0 0 0-.283-.297c.52-.03 1.04-.11 1.561-.165a.617.617 0 0 0-.109.451c.084.622.39 1.43.868 2.031-.586.116-1.172.23-1.766.31m-3.031.269c-.11-.582-.408-1.14-.428-1.768-.03-.982-1.565-1.119-1.539-.125.015.585.096 1.304.335 1.915-.18-.002-.363.015-.545.008-.051-.382-.313-.678-.584-1.03-.435-.569-.867-1.145-1.207-1.776-.445-.832-1.791-.249-1.349.6.306.591.677 1.143 1.063 1.685.09.127.183.268.277.406a30.647 30.647 0 0 1-1.807-.22c-.081-.465-.348-.774-.604-1.21a4.71 4.71 0 0 1-.603-1.884.681.681 0 0 0-.147-.357 32.468 32.468 0 0 0 8.762.914.637.637 0 0 0-.226.585l.048.307c.04.228.127.458.19.68.122.416.288.728.596 1.03.03.029.068.03.1.051-.774.087-1.55.162-2.332.189m-8.925-.939a.602.602 0 0 0 .073-.23c.047-.58-.214-.99-.461-1.504-.297-.612-.501-1.27-.687-1.924.724.254 1.468.45 2.21.65a.703.703 0 0 0-.53.675c-.025.745.17 1.795.614 2.61-.408-.088-.817-.172-1.22-.277m-2.854-.886c-.004-.043.003-.081-.009-.129l-.013.093a1.037 1.037 0 0 0-.059-.372c-.082-.322-.263-.631-.388-.94-.308-.764-.408-1.58-.546-2.383-.016-.093-.082-.145-.127-.218.617.288 1.245.551 1.88.798-.213.131-.363.36-.32.649.134.902.404 2.167 1.03 2.985-.484-.154-.973-.305-1.448-.483m-1.995-.84c-.159-.073-.323-.133-.479-.209.053-1.223-.538-2.622-.967-3.692-.318-.789-1.453-.37-1.232.44.18.663.393 1.316.587 1.974.048.162.09.323.135.483-.374-.212-.756-.409-1.118-.64.152-.674-.044-1.211-.235-1.868a8.27 8.27 0 0 1-.352-2.043c-.003-.06-.024-.106-.039-.16a30.013 30.013 0 0 0 3.844 2.277c-.244.042-.466.18-.507.506-.11.88.02 1.977.363 2.932m-4.799-2.823l-.016-.011c-.427-.327-.8-.704-1.198-1.057.449-1.19-.077-2.886-.525-4.06a29.315 29.315 0 0 0 1.944 1.605c-.328.027-.615.232-.606.666.019.826.093 1.92.401 2.857M9.73 60.142c.182.706.314 1.432.412 2.154.021.163.033.329.044.492a27.998 27.998 0 0 1-1.914-2.177c-.008-.047-.006-.082-.02-.139-.08-.32-.135-.645-.186-.973a8.126 8.126 0 0 1-.025-2.27.662.662 0 0 0-.138-.525c.755.938 1.579 1.798 2.43 2.62-.368.015-.726.338-.603.818m-3.137-3.085a8.09 8.09 0 0 0-.081 1.042c-.132-.213-.282-.414-.407-.63.114-.528.061-1.056.023-1.604-.043-.59-.076-1.181-.11-1.773a28.734 28.734 0 0 0 1.847 2.568c-.366-.372-1.164-.284-1.272.397m-1.825-3.328c-.02.315-.05.657-.075 1.012-.144-.315-.293-.628-.427-.948.137-.58-.084-1.258-.12-1.854-.026-.405-.007-.815.01-1.225.367.819.773 1.62 1.224 2.398a.637.637 0 0 0-.612.617m-1.78-5.465c-.098.36-.149.72-.215 1.08-.05-.196-.116-.387-.164-.585a25.566 25.566 0 0 1-.72-6.058 29.814 29.814 0 0 0 1.225 5.325.59.59 0 0 0-.126.238m92.998-36.328c-1.696-.792-3.52-1.606-5.383-2.068 1.234-2.487 1.981-5.188 2.887-7.805.286-.829-.822-1.358-1.44-.963-6.344 4.066-13.013 6.051-20.163 8.105-.31.09-.429.334-.421.585-.574.988-.466 2.099-.546 3.22-.09 1.274-.253 2.56-.189 3.837-2.967 1.354-5.905 2.726-8.796 4.006-2.684 1.185-5.46 2.368-8.239 3.598a.85.85 0 0 0-.301-.138C46.159 13.21 29.872 9.985 17.92 13.971c-6.927 2.31-11.666 7.42-14.189 13.566-7.907 13.035-2.518 31.66 9.33 40.303 6.607 4.818 15.584 6.213 23.465 4.39 7.6-1.757 17.12-7.515 18.77-15.756 5.786-8.685 5.468-20.822-.239-30.06 2.564-1.274 5.128-2.53 7.715-3.683 3.103-1.384 6.316-2.652 9.542-3.925 1.147.793 2.452 1.351 3.737 1.888 1.295.541 2.932 1.387 4.351 1.023a.512.512 0 0 0 .384-.523c5-2.724 9.828-5.362 15.173-7.434.819-.319.786-1.47.026-1.824" mask="url(#b)"/>
        </g>
        <g transform="translate(25 -1)">
            <mask id="d" fill="#fff">
                <use xlink:href="#c"/>
            </mask>
            <path fill="#F86C28" d="M47.47 13.697c.092-1.05.31-2.182.032-3.198 6.39-.512 12.792-3.166 18.352-6.462-.63 1.852-1.273 3.702-1.832 5.575-.004.01-.001.019-.004.03-.164-.022-.325-.067-.49-.08-.52-.042-.788.329-.787.718-.3.085-.6.187-.9.277.2-.734.408-1.658.2-2.326-.12-.376-.604-.571-.908-.264-.727.73-.813 2.04-.733 3.033-1.183.38-2.364.78-3.54 1.212.229-.71.402-1.444.128-2.125-.115-.287-.56-.376-.776-.156-.716.729-.755 1.897-.922 2.88-1.286.497-2.57 1.009-3.85 1.55.17-.7.233-1.428.026-2.036-.122-.36-.641-.605-.934-.26-.66.78-.674 1.93-.608 2.95-.891.388-1.783.773-2.667 1.173.08-.83.14-1.661.213-2.49m20.463-.806c-4.637 1.9-9.36 4.173-13.113 7.435-.9-.558-2.044-.822-2.998-1.191-.845-.328-1.672-.71-2.505-1.073.885-.352 1.767-.712 2.648-1.071.561.364 1.092.75 1.785.472.263-.105.338-.459.223-.693a1.503 1.503 0 0 0-.36-.458c1.004-.42 1.987-.872 2.977-1.31.536.248 1.092.6 1.675.614.275.008.596-.254.56-.553-.044-.364-.24-.623-.481-.833.772-.356 1.534-.727 2.293-1.1.224.128.452.249.667.393.709.479 1.489-.43 1.022-1.01-.005-.005-.004-.013-.01-.018-.014-.021-.04-.032-.056-.05-.027-.026-.042-.057-.075-.082.005.01.01.02.017.03l-.041-.037c.619-.32 1.243-.636 1.85-.974 1.273.572 2.6 1.028 3.922 1.509M12.926 40.499c-.268-.086-.542-.143-.814-.22-.014-1.256-.911-2.656-1.396-3.752-.7-1.578-1.512-3.304-2.703-4.586.296-.513.575-1.034.82-1.572.055.148.117.292.175.439.962 3.3 2.553 6.53 3.918 9.69m-3.574-.967a.532.532 0 0 0 .044-.295c-.236-1.812-1.212-4.155-2.51-5.484.168-.252.32-.51.482-.765.808 1.474 1.505 2.985 2.164 4.54.27.64.485 1.533.844 2.28-.343-.087-.682-.194-1.024-.276M5.84 38.74c-.008-.392-.49-.767-.655-1.083-.173-.33-.234-.722-.324-1.086.16-.204.314-.414.47-.62.233.496.472.989.658 1.502.166.452.226 1.007.482 1.424-.211-.041-.42-.097-.631-.137m13.204-9.624l-1.447.787c-1.862 1.045-3.673 2.148-5.39 3.348-.764-1.81-1.568-3.594-2.483-5.27.023-.084.059-.164.08-.25.173-.651-.772-1.016-1.095-.43-.05.09-.105.174-.156.262a.588.588 0 0 0-.192.324c-.87 1.533-1.826 2.988-2.813 4.42l-.02.065-.892 1.232c-.207.288-.4.585-.612.87-.005 0-.01 0-.016-.003l-.919 1.266-.445.578-.039.034c-.54.694-1.08 1.387-1.642 2.074-.412.502-.222 1.448.513 1.536a58.26 58.26 0 0 1 5.277.892l1.34.282a56.794 56.794 0 0 1 6.128 1.819c.778.279 1.646-.387 1.318-1.237-.896-2.324-1.788-4.742-2.758-7.126a110.773 110.773 0 0 0 6.104-2.633l1.508-.716c.218-.104.434-.212.65-.317l7.242-3.58 2.443-1.212.01-.002c2.298-1.138 4.597-2.26 6.917-3.294 3.112-1.39 6.337-2.664 9.573-3.943 1.15.796 2.46 1.357 3.75 1.896 1.3.545 2.942 1.393 4.366 1.028a.513.513 0 0 0 .385-.524c5.018-2.736 9.862-5.388 15.226-7.47.82-.32.789-1.475.025-1.831-1.701-.795-3.532-1.614-5.401-2.078 1.238-2.497 1.988-5.212 2.897-7.841.288-.832-.825-1.364-1.445-.967C60.666 5.191 53.974 7.184 46.8 9.248c-.312.09-.432.335-.424.588-.575.992-.467 2.107-.548 3.233-.09 1.28-.253 2.572-.19 3.855-2.977 1.36-5.925 2.74-8.826 4.024-2.693 1.192-5.479 2.38-8.267 3.615l-1.53.69c-2.695 1.215-5.38 2.478-7.971 3.863" mask="url(#d)"/>
        </g>
    </g>
</svg>
