<svg xmlns="http://www.w3.org/2000/svg" width="87" height="38" viewBox="0 0 87 38">
    <g fill="none" fill-rule="evenodd">
        <path stroke="#404041" stroke-linecap="round" stroke-linejoin="round" stroke-width="1.965" d="M1 25.164h85V14.315H1z"/>
        <path fill="#FFF" d="M38.424 14.423S20.244-2.344 14.84 1.601c-5.404 3.945-3.93 33.534 0 35.014 3.93 1.48 23.584-11.343 23.584-11.343V14.423z"/>
        <path stroke="#F86C28" stroke-linecap="round" stroke-linejoin="round" stroke-width="1.965" d="M38.424 14.423S20.244-2.344 14.84 1.601c-5.404 3.945-3.93 33.534 0 35.014 3.93 1.48 23.584-11.343 23.584-11.343V14.423z"/>
        <path fill="#FFF" d="M48.659 14.423S66.839-2.344 72.243 1.601c5.404 3.945 3.93 33.534 0 35.014-3.93 1.48-23.584-11.343-23.584-11.343V14.423z"/>
        <path stroke="#F86C28" stroke-linecap="round" stroke-linejoin="round" stroke-width="1.965" d="M48.659 14.423S66.839-2.344 72.243 1.601c5.404 3.945 3.93 33.534 0 35.014-3.93 1.48-23.584-11.343-23.584-11.343V14.423z"/>
        <path fill="#FFF" d="M51.628 18.887l6.387-3.452"/>
        <path stroke="#F86C28" stroke-linecap="round" stroke-linejoin="round" stroke-width="1.965" d="M51.628 18.887l6.387-3.452"/>
        <path fill="#FFF" d="M51.586 22.092l6.43 2.712"/>
        <path stroke="#F86C28" stroke-linecap="round" stroke-linejoin="round" stroke-width="1.965" d="M51.586 22.092l6.43 2.712"/>
        <path fill="#FFF" d="M35.372 18.887l-6.387-3.452"/>
        <path stroke="#F86C28" stroke-linecap="round" stroke-linejoin="round" stroke-width="1.965" d="M35.372 18.887l-6.387-3.452"/>
        <g>
            <path fill="#FFF" d="M35.414 22.092l-6.43 2.712"/>
            <path stroke="#F86C28" stroke-linecap="round" stroke-linejoin="round" stroke-width="1.965" d="M35.414 22.092l-6.43 2.712"/>
        </g>
        <path fill="#FFF" d="M50.175 19.76c0 3.825-3.09 6.925-6.9 6.925-3.81 0-6.9-3.1-6.9-6.925 0-3.824 3.09-6.924 6.9-6.924 3.81 0 6.9 3.1 6.9 6.924"/>
        <path stroke="#F86C28" stroke-linecap="round" stroke-linejoin="round" stroke-width="1.725" d="M50.175 19.76c0 3.825-3.09 6.925-6.9 6.925-3.81 0-6.9-3.1-6.9-6.925 0-3.824 3.09-6.924 6.9-6.924 3.81 0 6.9 3.1 6.9 6.924z"/>
    </g>
</svg>
