<svg xmlns="http://www.w3.org/2000/svg" xmlns:xlink="http://www.w3.org/1999/xlink" width="85" height="57" viewBox="0 0 85 57">
    <defs>
        <path id="a" d="M.515.202h9.46v2.635H.514z"/>
    </defs>
    <g fill="none" fill-rule="evenodd">
        <path fill="#404041" d="M57.157 38.773c.653-5.054.726-10.303 1.131-15.284.558-6.849 1.323-13.749 1.408-20.629 3.333 1.554 3.811 6.587 3.894 10.011.221 9.092-3.047 17.515-6.433 25.902M51.712 53.78c-1.072-.81-2.156-1.635-3.24-2.457 1.106-7.338.92-14.996 1.54-22.379.694-8.245 2.272-16.626 2.38-24.892.001-.064-.016-.117-.031-.172 1.483-.87 3.118-1.448 4.847-1.498.404-.013.776.018 1.131.073-1.06 6.494-1.49 13.11-2.09 19.654-.64 6.981-2.01 14.385-1.612 21.387a.826.826 0 0 0 .376.635c-1.247 3.191-2.411 6.396-3.301 9.65m-5.177-3.931a366.914 366.914 0 0 1-5.032-3.908c.838-6.466.892-13.239 1.159-19.724.532-6.463 1.22-13.327 5.403-18.56a16.886 16.886 0 0 1 2.815-2.784c-1.888 7.307-2.34 15.26-3.015 22.72-.654 7.223-1.739 14.921-1.33 22.256m-6.958-5.448a159.708 159.708 0 0 1-5.392-4.536c.879-3.576.661-7.602.888-11.213.22-3.462.465-6.937.5-10.408 2.061 2.938 3.593 6.324 4.825 9.643.021.053.055.088.08.133a.867.867 0 0 0 .436.507c-.851 5.164-1.494 10.643-1.337 15.874M33.1 27.965c-.222 3.29-.836 6.86-.72 10.255-1.208-1.112-2.4-2.241-3.548-3.404.69-3.452.521-7.176.686-10.652.179-3.793.58-7.741.346-11.564 1.65 1.041 3.055 2.361 4.305 3.832-.543 3.823-.806 7.686-1.069 11.533M27.546 23.5c-.17 3.076-.604 6.31-.53 9.456a75.669 75.669 0 0 1-3.152-3.597c.46-2.769.487-5.618.622-8.412.168-3.44.576-7.036.224-10.478.57.118 1.134.265 1.677.45a16.36 16.36 0 0 1 2.095.901c-.706 3.817-.724 7.83-.936 11.68m-4.881-3.943c-.177 2.503-.476 5.07-.517 7.614-.28-.375-.566-.743-.837-1.122a32.002 32.002 0 0 1-1.353-2.045c.562-4.542.83-9.108 1.631-13.644.667-.124 1.35-.12 2.031-.055-.677 3.012-.736 6.187-.955 9.252m-5.262-3.288c-.034-2.337.689-4.448 2.818-5.456-.787 3.295-1.494 6.811-1.748 10.279-.631-1.538-1.046-3.15-1.07-4.823M63.5 2.848C59.219-2.678 51.12.836 47.246 4.96 42.558 9.948 41.2 16.53 40.677 23.095c-2.475-6.208-6.545-11.88-13.126-14.283-7.02-2.563-13.27.73-12.484 8.562.829 8.284 8.177 15.178 13.869 20.648 3.468 3.333 7.121 6.46 10.863 9.483.109.317.413.535.728.586 3.709 2.974 7.499 5.852 11.283 8.727.613.466 1.598-.033 1.761-.708 2.354-9.751 7.123-18.65 10.038-28.216 1.42-4.653 2.41-9.5 2.39-14.38-.013-3.454-.283-7.805-2.5-10.666"/>
        <path fill="#F86C28" d="M6.304 25.23c-1.062-.12-2.11-.243-3.181-.229-.921.012-1.955-.036-2.736.47-.575.374-.51 1.233.198 1.43.892.252 1.836-.046 2.75-.135.986-.096 1.977-.175 2.97-.155.953.018.9-1.279 0-1.38M6.71 33.106c-.843.436-1.688.832-2.477 1.377-.726.5-1.648 1.086-2.076 1.897-.537 1.014.416 1.73 1.17 1.57l.007.05c.08-.034.15-.084.225-.125.03-.016.06-.03.088-.05.655-.376 1.196-.95 1.782-1.447.695-.592 1.392-1.2 2.15-1.698.954-.623.122-2.084-.868-1.574M79.659 10.064c-2.606.812-5.024 2.302-7.322 3.668-.475.283-.474 1.12.172 1.226 1.277.208 2.327-.392 3.409-.98 1.375-.746 2.778-1.332 4.254-1.882 1.305-.163 1.019-2.51-.513-2.032"/>
        <g transform="translate(75 19)">
            <mask id="b" fill="#fff">
                <use xlink:href="#a"/>
            </mask>
            <path fill="#F86C28" d="M8.886.218L8.66.203a.844.844 0 0 0-.431.091C5.87.573 3.43.602 1.112 1.037c-.799.15-.793 1.405 0 1.56 2.573.5 5.501.128 8.067-.278 1.29-.204.88-2.03-.293-2.101" mask="url(#b)"/>
        </g>
    </g>
</svg>
